<?xml version="1.0" encoding="utf-8"?>
<!-- Generator: Adobe Illustrator 19.2.0, SVG Export Plug-In . SVG Version: 6.00 Build 0)  -->
<svg version="1.1" id="Layer_1" xmlns="http://www.w3.org/2000/svg" xmlns:xlink="http://www.w3.org/1999/xlink" x="0px" y="0px"
	 viewBox="0 0 600 410" enable-background="new 0 0 600 410" xml:space="preserve">
<path fill="#302215" d="M371.8,209.1c-5.2-34.7-23.9-56.3-48.8-55.6c-8,0.2-15.2,2.6-21.2,6.8c-3.5-2.9-7.8-4.7-13.4-4.8
	c-27.3-0.5-65,31.6-65,69.4c0,3.7,0.3,7.2,0.8,10.7c19.5,11.9,48.6,19.7,80.8,20.1c30.6,0.4,54.4-4.5,71.5-12.5
	C376.2,233.3,373.6,221.6,371.8,209.1z"/>
<path fill="#0F200E" d="M224,234.9c0,0.2,0.1,0.5,0.1,0.7c19.5,11.9,48.6,19.7,80.8,20.1c30.6,0.4,54.4-4.5,71.5-12.5
	c0-0.1,0-0.2,0-0.4c-14.5-7.1-40.8-12.1-71.4-13.8C272.7,227.3,240.5,229,224,234.9z"/>
<path fill="#F9D1A0" d="M323.9,239.2h-49.4c-21.7,0-25.5-16.3-23.9-21c3.3-10.1,17.7-25,23.9-25h49.4c13.2,0,20,15.9,22.6,24.9
	C350.2,230.9,343,239.2,323.9,239.2z"/>
<path fill="#302215" d="M350.6,210.9c-7,7.8-32.4,1.2-54.3-14.5c-20-14.4-24.8-27.8-24-29.4c5.5-11,28-9.8,48.9,2
	C342.3,180.8,355.7,205.3,350.6,210.9z"/>
<path fill="#302215" d="M306.4,171.5c4.8,10.2,7.4,11.6-10.8,25.7c-5.9,4.5-40.4,18.3-44.9,10.3c-5.5-9.8,12.6-29,19.9-33.5
	C290.1,161.7,301.6,161.3,306.4,171.5z"/>
<radialGradient id="SVGID_1_" cx="326.2453" cy="232.4962" r="5.0277" gradientTransform="matrix(1 0 0 0.2477 0 174.8998)" gradientUnits="userSpaceOnUse">
	<stop  offset="0" style="stop-color:#FF7BAC"/>
	<stop  offset="1" style="stop-color:#FF7BAC;stop-opacity:0"/>
</radialGradient>
<path fill="url(#SVGID_1_)" d="M320.3,232.7c-0.3-1,4.3-3.4,8.2-2.3c2.1,0.6,3.9,2.1,3.3,3C330.7,234.9,320.7,234.1,320.3,232.7z"/>
<radialGradient id="SVGID_2_" cx="273.2453" cy="232.4962" r="5.0277" gradientTransform="matrix(1 0 0 0.2477 0 174.8998)" gradientUnits="userSpaceOnUse">
	<stop  offset="0" style="stop-color:#FF7BAC"/>
	<stop  offset="1" style="stop-color:#FF7BAC;stop-opacity:0"/>
</radialGradient>
<path fill="url(#SVGID_2_)" d="M267.3,232.7c-0.3-1,4.3-3.4,8.2-2.3c2.1,0.6,3.9,2.1,3.3,3C277.7,234.9,267.7,234.1,267.3,232.7z"/>
<path fill="#422D1E" d="M329.6,175c-4.9-4.7-10.2-8-14.3-8.5c-4.1-0.5-7.7-0.1-15.9,2.6c-3.7-0.6-3.6-1.6-6.9-2.2
	c-5.9-1.1-11.5,1.1-15.7,3.6c5.5-4.5,11.9-7.2,17.5-7.1c2.7,0.1,4.7,1.4,6.4,2.8c2.8-2,6.3-3.6,10.1-3.7
	C318.7,162.2,325.3,166.9,329.6,175z"/>
<path fill="#422D1E" d="M350.6,209c-7,7.8-32.4,1.2-54.3-14.5c-4.8-3.5-8.7-6.9-11.9-10.1c7.4,4.8,25.4,15.6,42.7,18.1
	c2.1,0.3,17.2,2.5,23.8-1.4C352,204.6,351.9,207.4,350.6,209z"/>
<path fill="#422D1E" d="M254.5,209.6c-3.4,0.2-5.9-0.5-6.9-2.3c-2.1-3.9,2.1-14,6.9-20.5c-1.3,4.4-4,14.4-3,19.1
	C251.9,207.6,253.5,208.7,254.5,209.6z"/>
<path fill="#C1C0BF" stroke="#1E140D" stroke-miterlimit="10" d="M282,221.3c0,3-1.2,5.4-2.2,5.4s-1.8-2.4-1.8-5.4
	c0-3,0.3-5.4,1.8-5.4C280.8,215.9,282,218.3,282,221.3z"/>
<path fill="#C1C0BF" stroke="#1E140D" stroke-miterlimit="10" d="M317.1,221.3c0,3-1,5.4-2.3,5.4c-1,0-2.1-2.4-2.1-5.4
	c0-3,1.4-5.4,2.1-5.4C316.2,215.9,317.1,218.7,317.1,221.3z"/>
</svg>
